<svg xmlns="http://www.w3.org/2000/svg" width="110.248" height="93.478" viewBox="0 0 110.248 93.478">
  <g id="Background" transform="translate(0)">
    <path id="Weird_Shape" data-name="Weird Shape" d="M1.152,11.268c7.8-17.629,57.394-14.4,72.653,8.483s-2.18,73.727-17.813,73.727S40.36,59.151,33.914,49.07-6.648,28.9,1.152,11.268Z" transform="translate(26.153 0)" fill="rgba(145,255,189,0.7)"/>
    <path id="Weird_Shape-2" data-name="Weird Shape" d="M16.577,51.711c9.151,2.1,9.522-7.844,9.518-21.044S27.919,2.325,18.768.228,0,10.814,0,24.014,7.426,49.614,16.577,51.711Z" transform="translate(39.238 14.82) rotate(49)" fill="rgba(43,68,255,0.6)"/>
    <path id="Weird_Shape-3" data-name="Weird Shape" d="M8.644,27.441c6.3,0,13.252-6.033,13.252-13.721S14.945,0,8.644,0,0,8.8,0,15.1,2.343,27.441,8.644,27.441Z" transform="translate(88.352 59.224)" fill="rgba(255,115,198,0.7)"/>
  </g>
</svg>
