<svg xmlns="http://www.w3.org/2000/svg" width="203.66" height="200.008" viewBox="0 0 203.66 200.008">
  <g id="Top_Leaves" data-name="Top Leaves" transform="translate(0 -0.269)" opacity="0.5">
    <path id="Leaf" d="M66.173,108.19c.2-8.649-3.345-16.621-7.268-24.144C51.27,69.4,47.451,60.637,48.685,43.243c.726-10.23,1.594-21.039-3.628-30.328-3.8-6.765-11.776-14-20.2-12.778C11.529,3.173,4.087,15.874,1.234,28.486-2.3,44.117,1.747,55.78,13.551,65.8c6.651,5.642,10.4,11.454,12.217,20.047,1.452,6.871,1.039,14.751,3.522,21.359C33,117.08,39.7,123.113,49.783,124.948c-3.638-19.58-8.748-39.812-16.941-57.965-.735-1.8-6.021-9.475-3.822-11.414,2.423-2.135,6.421,10.142,6.389,10.065,2.323,5.456,4.282,11.088,6.166,16.743l-.032,0q2.917,8.711,5.649,17.579c.7,2.478,1.361,4.969,1.945,7.494.858,3.705.959,13.463,3.392,16.36a5.245,5.245,0,0,0,1.584,1.321c.974,4.086,1.884,8.18,2.681,12.284,2.081,10.716,3.285,21.708,1.935,32.605-.394,3.18-4.44,14.241-3.1,17.065,2.451,5.165,3.829-2.8,4.352-5.169,4.325-19.622,2.762-38.044-1.957-57.255,4.338-2.988,8.067-12.969,8.148-16.473" transform="matrix(0.951, -0.309, 0.309, 0.951, 82.377, 20.72)" fill="#c1dee2"/>
    <path id="Leaf-2" data-name="Leaf" d="M9.814.092c6.33.926,12.306,8.927,15.255,14.262a94.617,94.617,0,0,1,8.11,21.385c3.158,11.945,3.585,25.2,3.624,37.437,0,1.474.312,19.482-1.793,19.186-2.086-.293-.765-18.984-.943-22.855-.379-8.26.187-16.406-1.75-24.562a77.855,77.855,0,0,0-10.33-23.7c-.6-.936-1.859-4.416-3.293-3.613-1.4.786,2.483,5.422,3.034,6.323a79.85,79.85,0,0,1,5.894,11.71,61.7,61.7,0,0,1,4.609,23.694c-4.818.74-9.015-2.081-10.631-6.782-1.4-4.063-1.533-8.789-3.119-12.631a18.74,18.74,0,0,0-4.955-6.793C7.921,28.146,2.069,26.893.4,18.576-.912,12.056.714-1.233,9.814.092" transform="matrix(0.53, -0.848, 0.848, 0.53, 38.968, 121.103)" fill="#c9c9c9"/>
    <path id="Leaf_Me_Alone_" data-name="Leaf Me Alone!" d="M11.965,45.8a5.74,5.74,0,0,0,3.893-1.353,7.715,7.715,0,0,0,2.1-3.335,28.448,28.448,0,0,0,1.105-8.28,33.162,33.162,0,0,1,1.2-8.929,15.67,15.67,0,0,1,4.889-7.4c.63-.539,1.3-1.051,1.95-1.547.576-.44,1.172-.894,1.736-1.365l.256-.213.016-.014c1.816-1.51,3.694-3.072,3.924-5.541a3.828,3.828,0,0,0-.656-2.99,2.885,2.885,0,0,0-2.258-.8,9.353,9.353,0,0,0-1.912.231c-.1.021-.372.123-.747.264a14.726,14.726,0,0,1-3.8,1.068c-.294,0-.486-.066-.572-.2a.559.559,0,0,1,.026-.525c.22-.522.974-.983,2.242-1.369,2.549-.275,4.957-.521,6.391-.521a4.793,4.793,0,0,1,.929.066,14.1,14.1,0,0,1,6.843,3.773,24.04,24.04,0,0,1,4.722,6.737A51.035,51.035,0,0,1,48.617,29.31c.113.95.215,1.986.312,3.168h1.958a64.363,64.363,0,0,0-.736-7.425,46.358,46.358,0,0,0-5.188-15.013,22.336,22.336,0,0,0-5.07-6.1A14.169,14.169,0,0,0,32.858.815,10.556,10.556,0,0,0,31.725.775c-.74,0-1.63.028-2.506.079A6.568,6.568,0,0,0,26.443.043C26.054.014,25.656,0,25.258,0a20.345,20.345,0,0,0-6.7,1.213,28.957,28.957,0,0,0-6.395,3.218A33.291,33.291,0,0,0,6.641,9.019a27.765,27.765,0,0,0-4.091,5.324A20.373,20.373,0,0,0,0,24.588,32.852,32.852,0,0,0,1.786,35.121a24.021,24.021,0,0,0,3.58,6.96c1.921,2.442,4.11,3.694,6.506,3.721Z" transform="translate(0 34.189)" fill="#9adec7"/>
  </g>
</svg>
