<svg xmlns="http://www.w3.org/2000/svg" width="231.135" height="192.335" viewBox="0 0 231.135 192.335">
  <g id="Corner_Plants" data-name="Corner Plants" transform="translate(-0.459 -0.523)">
    <path id="Fill_16" data-name="Fill 16" d="M7.893,15.518A110.564,110.564,0,0,1,21.01,6.94C28.176,2.654,35.225-.218,43.6.013,57.219.389,69.5,4.988,80.684,12.3A68.958,68.958,0,0,1,96.556,25.989c1.966,2.409,3.768,4.947,5.511,7.522,1.077,1.59,2.1,3.215,3.108,4.851.607.985,1.905,2.382,1.958,3.587a1.96,1.96,0,0,1-2.811,1.851c-1.108-.6-1.788-2.445-2.458-3.486-1.542-2.4-3.2-4.7-4.921-6.972a60.709,60.709,0,0,0-8.951-9.624A87.46,87.46,0,0,0,64.817,9.661C63.8,17.748,59.168,23.741,52.182,27.8c-9.945,5.774-19.917,8.713-31.371,7.869-7.439-.548-13.481-3.885-18.844-8.825-1.014-.934-2.3-2.381-1.889-3.927.393-1.489,2.325-2.667,3.417-3.651C4.928,17.973,6.4,16.732,7.893,15.518Z" transform="translate(116.805 154.738) rotate(-30)" fill="#dde3e9"/>
    <path id="Leaf" d="M80.739,179.108c-1.552-12.426-3.2-24.78-6.214-36.963-1.779-7.179-4.06-14.207-6.133-21.3q.278,1.336.492,2.685c-.721-2.117-2.23-4.141-3.1-6.25-.967-2.352-1.744-4.8-2.482-7.225-1.441-4.741-2.8-9.49-4.422-14.176-1.808-5.221-3.89-10.355-5.83-15.53A125.72,125.72,0,0,0,47.72,67.152c-1.169-2.284-2.217-4.738-3.364-7.066-.384-.779-3.678-9.485-3.653-9.485.546,0,2.59,3.869,2.928,4.437.99,1.66,1.83,3.388,2.68,5.119A22.809,22.809,0,0,1,48.183,54.2c.283-.584,2.272-4.889,2.919-4.89.323,0-2.668,8.129-3.046,8.843a14.746,14.746,0,0,0-1.082,1.932c-.324,1-.157.747.108,1.645a47.045,47.045,0,0,0,2.246,4.838,34.311,34.311,0,0,0,2.185,5.077c2.3,4.5,3.935,9.981,5.686,14.83a31.763,31.763,0,0,1,1.94-6.926c.215-.533,1.925-5.476,2.416-5.477.553,0-1.571,7.917-1.859,8.6-.535,1.27-1.376,2.5-1.822,3.793-.489,1.419.366,2.7.911,4.146,2,5.337,3.757,10.727,5.359,16.19,9.34-4.09,11.207-16.105,11.824-24.965a61.759,61.759,0,0,0-2.087-19.079c-2.064-8.264-5.542-16.242-9.233-23.922A85.4,85.4,0,0,0,47.292,14.89,91.435,91.435,0,0,0,34.987,5.08a26.161,26.161,0,0,0-6.742-3.465,24.434,24.434,0,0,0-3.4-.827c-.876-.153-2.663-.962-3.389-.755C15.52,1.677,11.059,4.406,7.6,9.473A44.349,44.349,0,0,0,1.151,25.628,51.312,51.312,0,0,0,.653,44.5,116.365,116.365,0,0,0,4.3,58.689c5.042,16.6,13.89,34.384,29.787,43.475a48.389,48.389,0,0,0,16.72,5.569c1.382.214,2.762.417,4.16.495.943.052,4.043-.575,4.724-.17.935.555,1.469,3.711,1.876,4.854,3.089,8.694,5.851,17.486,8.356,26.357,2.665,9.438,4.78,18.969,6.54,28.606.749,4.1,1.478,8.191,2.1,12.313.145.959-.008,3.975.928,4.821a1.133,1.133,0,0,0,1.784-.341c.614-1.141-.382-4.288-.541-5.56" transform="matrix(0.391, -0.921, 0.921, 0.391, 0.459, 75.523)" fill="#c1dee2"/>
    <path id="Leave_the_Leaf_" data-name="Leave the Leaf!" d="M32.426,41.307a52.279,52.279,0,0,1-8.873-.743,47.667,47.667,0,0,1-8.738-2.378A35.213,35.213,0,0,1,5.48,33.327a12.238,12.238,0,0,1-3.335-3.889,8.513,8.513,0,0,1-.853-5.122.963.963,0,0,1-.3.046A1.014,1.014,0,0,1,0,23.686c-.027-.225.149-.4.494-.479.844-.2.877-.263,1.194-.843l.1-.174a8.993,8.993,0,0,0,.5-1.149c.106-.276.215-.562.337-.825a22.947,22.947,0,0,1,2.2-3.828,30.455,30.455,0,0,1,6.689-6.666c5.34-3.917,10.158-6.45,14.73-7.745A51.406,51.406,0,0,1,33.591.484,59,59,0,0,1,41.178,0,59.834,59.834,0,0,1,52.665,1.1,29.959,29.959,0,0,1,60.051,3.41a17.523,17.523,0,0,1,6.07,4.7A17.321,17.321,0,0,1,69.807,15.4a8.6,8.6,0,0,1,.135,1,7.029,7.029,0,0,0,.185,1.2l.036.13c.2.718.2.718.765.78.158.017.355.039.613.082,1.338.223,2.712.457,4.082.694a100.205,100.205,0,0,1,10.611,2.275,28.725,28.725,0,0,1,3.35,1.2c.129.055.322.13.546.218,1.268.494,3.627,1.414,3.964,2.321a.994.994,0,0,1,.034.89.65.65,0,0,1-.57.223,4.233,4.233,0,0,1-1.717-.525c-.6-.338-1.227-.658-1.86-.952a30.212,30.212,0,0,0-4.939-1.762c-1.811-.485-3.685-.855-5.5-1.212l-.06-.012c-1.556-.306-3.214-.608-5.22-.951-.987-.168-2-.335-2.89-.483l-.018,0a2.637,2.637,0,0,1-.256-.063,1.717,1.717,0,0,0-.41-.082.211.211,0,0,0-.165.056.222.222,0,0,0-.04.178,29.253,29.253,0,0,0-4.6-.381c-.568-.017-1.151-.035-1.714-.064-2.173-.113-4-.189-5.841-.189-.622,0-1.229.009-1.806.027a53.391,53.391,0,0,0-5.513.426,27.692,27.692,0,0,0-3.172.625c-.128.033-.344.074-.593.122-.87.168-2.325.449-2.571.841.042-.066.309-.1.795-.1.394,0,.877.021,1.253.04l.3.015c.273.014.487.025.588.025h.029c1.3-.049,2.6-.182,3.818-.317a59.9,59.9,0,0,1,6.641-.385l.452,0c-.007.3-.861.777-1.486,1.123-.231.128-.429.238-.537.313A22.908,22.908,0,0,0,54,24.762a24.977,24.977,0,0,0-4.028,4.471,4.673,4.673,0,0,1,1.438-.97c.3-.159.576-.308.746-.427.848-.595,1.627-1.2,2.317-1.791.728-.627,1.391-1.3,1.945-1.871.2-.209.427-.492.666-.791a6.461,6.461,0,0,1,1.632-1.639l.009,0a.459.459,0,0,1,.129.054l.074.037a.764.764,0,0,0,.3.091.227.227,0,0,0,.1-.02,1.481,1.481,0,0,0,.4-.451.7.7,0,0,1,.116-.152,2.2,2.2,0,0,1,.784-.114A10.764,10.764,0,0,1,62,21.315c.318.043.618.084.857.1,1.529.071,3.08.158,4.58.243l.054,0,1.624.091c.08,0,.167.006.272.006h.3c.373,0,.7.027.867.362a3.815,3.815,0,0,1-.245,2.014c-.044.153-.081.285-.107.39a12.642,12.642,0,0,1-2.8,5.507,22.624,22.624,0,0,1-9.548,6.32,88.986,88.986,0,0,1-12.619,3.611A64.676,64.676,0,0,1,32.426,41.307ZM45.884,15.243c-.061,0-.1.013-.117.039a.124.124,0,0,0-.01.1c.148.532,2.861,1.912,4.842,2.92a17.835,17.835,0,0,1,1.958,1.06,13.739,13.739,0,0,0-3.637-2.918A14.717,14.717,0,0,0,45.884,15.243ZM65.023,11.7c0,.027.27.51.562,1.021l0,0c.234.412.477.837.587,1.05.489.937.971,1.945,1.475,3.082A18.809,18.809,0,0,0,65.023,11.7Z" transform="translate(91.924 106.39) rotate(-30)" fill="#89c5cc"/>
  </g>
</svg>
