<svg id="A_Human_Sitting" data-name="A Human/Sitting" xmlns="http://www.w3.org/2000/svg" width="135" height="167.697" viewBox="0 0 135 167.697">
  <g id="Head_Front" data-name="Head/Front" transform="translate(33)">
    <g id="Head" transform="translate(24.92 14.348)">
      <path id="Head-2" data-name="Head" d="M0,34,3.934,16.064A12.46,12.46,0,0,1,.5,7c.715-9.967,14.9-7.775,17.66-2.744s2.432,17.791-1.134,18.69c-1.422.359-4.452-.52-7.536-2.338L11.429,34Z" transform="translate(0.08 -0.348)" fill="#b28b67"/>
    </g>
    <path id="Hair" d="M4.8,21.365C3.413,15.19-.542,10.981.062,8.221A4.7,4.7,0,0,1,3.282,4.788S4.634-.684,12.006.133s11.872,3.879,9.929,10.616c-1.786,0-3.943-.646-6.924.461-1.419.527-2.03,3.267-2.03,3.267H11.633s-1.962-3.252-3.868-2.39S6.9,16.274,6.9,16.274l-.664,5.091Z" transform="translate(23.04 11.032)" fill="#191847"/>
  </g>
  <g id="Bottom_Skinny_Jeans_1" data-name="Bottom/Skinny Jeans 1" transform="translate(0 86)">
    <g id="Seat" transform="translate(0 20)">
      <g id="Seat-2" data-name="Seat" transform="translate(25.344)">
        <path id="Seat_Stuff" data-name="Seat Stuff" d="M12.729,0h35.6l4.665,57.139H0Z" fill="#c5cfd6"/>
        <path id="Seat_Stuff-2" data-name="Seat Stuff" d="M12.729,0H23.677L30.23,57.139H0Z" fill="rgba(0,0,0,0.1)"/>
      </g>
    </g>
    <path id="Skin" d="M26.326,65.226c-.461-5.829-1.318-26.01-.461-35.35.362-3.943.752-7.694,1.136-11.025C18.772,33.649,5.307,55.3,5.307,55.3L0,52.874s6.251-20.6,10.251-29.079C14.818,14.11,19.1,5.817,20.9,2.9,23.736-1.7,28.671-.1,31.278,2.685c3.8-2.279,10.163.649,10.159,3.909-.013,9.753-8.914,55.717-9.378,58.623a3.155,3.155,0,0,1-3.167,2.477A2.462,2.462,0,0,1,26.326,65.226Z" transform="translate(82.588 6.879)" fill="#b28b67"/>
    <path id="LegLower" d="M0,51.536,2.358,4.76c1.7-8.088,16.085-4.334,16.079,0C18.424,14.6,12.513,48.6,12.509,51.527Z" transform="translate(100.593 3.7) rotate(20)" fill="#1f28cf"/>
    <g id="Right_Shoe" data-name="Right Shoe" transform="translate(85.739 44.278) rotate(30)">
      <path id="shoe" d="M2.567,3.035a1.147,1.147,0,0,0-1.472.775L0,7.677a37.015,37.015,0,0,0,.517,4.539H32.879S34.14,8.037,31.422,7.7s-4.515-.6-4.515-.6L11.866.382A.573.573,0,0,0,11.1.688l-.967,2.35A12.984,12.984,0,0,1,6.046,4.215Z" transform="translate(0.574 10.784)" fill="#e4e4e4"/>
    </g>
    <g id="Right_Shoe-2" data-name="Right Shoe" transform="translate(107 58)">
      <path id="shoe-2" data-name="shoe" d="M2.061,2.5A.922.922,0,0,0,.879,3.12L0,6.218A29.6,29.6,0,0,0,.415,9.856h25.99s1.013-3.349-1.17-3.616-3.626-.482-3.626-.482L9.529.372a.461.461,0,0,0-.614.245L8.139,2.5a10.444,10.444,0,0,1-3.284.943Z" transform="translate(0.461 8.576)" fill="#e4e4e4"/>
    </g>
    <path id="Leg_and_Butt" data-name="Leg and Butt" d="M78.691,16.788c0,12.242-5.814,40.8-5.818,43.494l-12.509.01s2.746-38.22,1.948-38.632-32.74,3.189-42.32,3.189C6.178,24.849.464,16.137,0,0H27.365C32.937.6,62,6.458,72.794,8.473,77.415,9.336,78.691,13.416,78.691,16.788Z" transform="translate(46.61)" fill="#2b44ff"/>
  </g>
  <g id="Body_Long_Sleeve_1" data-name="Body/Long Sleeve 1" transform="translate(41.832 28.22)">
    <path id="Skin-2" data-name="Skin" d="M14.555,55.721,0,49.685l3.249-8.032,14.7,10.794a39.565,39.565,0,0,1,9.992,4.015c.632.576,1.4,1.741-1.225,1.54s-5.386-.3-5.747.6,1.224,1.962.493,3.168a.347.347,0,0,1-.319.172Q19.851,61.94,14.555,55.721ZM4.793,10.859,22.259,5.615A39.565,39.565,0,0,1,31.479.052c.84-.158,2.231-.066.493,1.905s-3.477,4.123-2.981,4.95,2.3.2,2.828,1.513q.523,1.309-8.986,1.876L9.252,18.288Z" transform="translate(46.599 0)" fill="#b28b67"/>
    <path id="Coat_Back" data-name="Coat Back" d="M6.217,0C17.811,12.345,31.953,20.4,51.24,27.546L46.957,36.11c-19.9-1.876-30.538-3.375-38.878-15.739C5.985,17.268,2.242,6.591,0,1.047Z" transform="matrix(0.966, 0.259, -0.259, 0.966, 21.013, 10.976)" fill="#69c2a4"/>
    <path id="Shirt" d="M0,52.531H35.482S23.426,15.763,23.165,2.061C23.156,1.595,22.3.774,21.915.882,17.741,2.061,12.982,0,12.982,0,4.57,13.528,1.661,30.185,0,52.531Z" transform="translate(4.641 9.78)" fill="#f2f2f2"/>
    <path id="Coat_Front" data-name="Coat Front" d="M.655,68.017C-2.35,47.824,5.547,19.825,12.869,5.7a2.5,2.5,0,0,1,2.277-1.556h5.5l.007.022c1.852.015,3.914.089,6.163.163C36.914,4.664,50.787,5,66.352,0l1.879,9.388c-14.383,9.25-28.947,16.417-41.709,15.4,5.541,23.77,5.286,43.23-6.948,43.23Z" transform="translate(0 5.633)" fill="#69c2a4"/>
  </g>
</svg>
