<svg xmlns="http://www.w3.org/2000/svg" xmlns:xlink="http://www.w3.org/1999/xlink" width="112.004" height="103.833" viewBox="0 0 112.004 103.833">
  <defs>
    <clipPath id="clip-path">
      <path id="Mask" d="M55.39,102.705A41.548,41.548,0,0,0,95.38,72.461C96.387,68.882,112,57.081,112,53.181,112,30.262,78.33,0,55.39,0S-15.342,92.846,4.868,102.705c12.071,5.889,19.99-13.275,21.6-11.714A41.417,41.417,0,0,0,55.39,102.705Z" transform="translate(0)" fill="none"/>
    </clipPath>
    <clipPath id="clip-path-2">
      <path id="Path" d="M20.837,4.862c.178-.512,1.389-2.1-.769-3.608-.388-.271-1.028,0-1.583-.172-.418-.129-.558-.711-1.037-.813-.5-.105-1.038.372-1.6.33-.344-.026-.875-.561-1.233-.59C13.977-.042,13.4.56,12.772.6c-.362.022-.782-.559-1.141-.59A9.635,9.635,0,0,0,9.191.465c-.71.114-1.04,1.568-1.563,1.911C5.986,3.454,4.7,3.756,3.369,4.862A12,12,0,0,0,.827,8.033C.171,8.909-.234,12,.148,13.977c.226,1.168.814,4.356,2.127,5.59,1.8,1.69,5.455,2.19,5.78,1.965,1.5-1.044,4.874-6.819,7.265-8.86A20.488,20.488,0,0,0,20.837,4.862Z" transform="translate(0 0)" fill="#ff9b21"/>
    </clipPath>
  </defs>
  <g id="Human" transform="translate(-0.304 -0.033)">
    <ellipse id="Background" cx="41.535" cy="41.498" rx="41.535" ry="41.498" transform="translate(14.16 19.742)" fill="#aaddc7"/>
    <path id="Mask-2" data-name="Mask" d="M55.39,102.705A41.548,41.548,0,0,0,95.38,72.461C96.387,68.882,112,57.081,112,53.181,112,30.262,78.33,0,55.39,0S-15.342,92.846,4.868,102.705c12.071,5.889,19.99-13.275,21.6-11.714A41.417,41.417,0,0,0,55.39,102.705Z" transform="translate(0.304 0.033)" fill="none"/>
    <g id="Human-2" data-name="Human" transform="translate(0.304 0.033)" clip-path="url(#clip-path)">
      <g id="Human-3" data-name="Human" transform="translate(-6.706 -6.588)">
        <g id="Head_Front" data-name="Head/Front" transform="translate(33.721)">
          <g id="Head" transform="translate(22.207 12.737)">
            <path id="Head-2" data-name="Head" d="M0,29.994,3.4,14.171a11.126,11.126,0,0,1-2.963-8C1.052-2.619,13.3-.685,15.686,3.753s2.1,15.695-.98,16.488c-1.228.316-3.845-.458-6.508-2.062L9.87,29.994Z" transform="translate(0 0)" fill="#784931"/>
          </g>
          <g id="Turban" transform="translate(16.757 9.129)">
            <path id="Path-2" data-name="Path" d="M20.837,4.862c.178-.512,1.389-2.1-.769-3.608-.388-.271-1.028,0-1.583-.172-.418-.129-.558-.711-1.037-.813-.5-.105-1.038.372-1.6.33-.344-.026-.875-.561-1.233-.59C13.977-.042,13.4.56,12.772.6c-.362.022-.782-.559-1.141-.59A9.635,9.635,0,0,0,9.191.465c-.71.114-1.04,1.568-1.563,1.911C5.986,3.454,4.7,3.756,3.369,4.862A12,12,0,0,0,.827,8.033C.171,8.909-.234,12,.148,13.977c.226,1.168.814,4.356,2.127,5.59,1.8,1.69,5.455,2.19,5.78,1.965,1.5-1.044,4.874-6.819,7.265-8.86A20.488,20.488,0,0,0,20.837,4.862Z" transform="translate(0 0)" fill="#ff9b21"/>
            <g id="Turban-2" data-name="Turban" transform="translate(0 0)" clip-path="url(#clip-path-2)">
              <path id="Shade" d="M4.192,9.044C5.181,5.538,6.144.128,6.144.128L7.359,0S5.347,8.48,4.24,11.876c-.748,2.3-1.358,4.239-1.883,5.831,1.08-2.389,2.468-5.454,3.724-8.6C7.431,5.727,8.955.446,8.955.446h1.222S7.289,8.67,5.832,11.932c-1.562,3.5-2.684,6.153-3.578,7.936A96.573,96.573,0,0,0,8.511,9.284,84.184,84.184,0,0,0,11.8.9l1.137.486s-2.865,7.145-4.427,9.965A48.8,48.8,0,0,1,.744,22.228c-.2.182-.262.224-.215.131a.045.045,0,0,1-.034-.028,2.974,2.974,0,0,1-.238.317c-.09.1-.155.153-.2.153C-.429,22.8,2.207,16.072,4.192,9.044Z" transform="translate(6.365 -0.607)" fill="rgba(0,0,0,0.2)"/>
            </g>
          </g>
        </g>
        <g id="Bottom_Skinny_Jeans_1" data-name="Bottom/Skinny Jeans 1" transform="translate(0 76.834)">
          <path id="Leg" d="M42.735,0c-7.858,6.407-4.844,62.612-5.368,63.32C37.017,63.791,0,71.333,0,71.333l1.067,4.35s43.3-2.132,45.825-5.346C50.5,65.735,55.8,18.851,55.8,18.851Z" transform="matrix(0.574, -0.819, 0.819, 0.574, 23.457, 35.006)" fill="#b28b67"/>
          <path id="Pant" d="M0,69.627l1.879,7.007c21.521,2.481,35.706-.573,40.7-5.322s8.934-51.346,8.934-51.346L37.531,0C18.826,14.113,30,60.341,29.52,61.4S17.694,63.287,0,69.627Z" transform="matrix(0.574, -0.819, 0.819, 0.574, 25.953, 30.768)" fill="#2f3676"/>
          <g id="Right_Show" data-name="Right Show" transform="translate(82.891 64.94) rotate(20)">
            <path id="shoe" d="M4.474,5.033A2,2,0,0,0,1.908,6.381L0,13.106A64.242,64.242,0,0,0,.9,21H57.3s2.2-7.268-2.538-7.848-7.87-1.047-7.87-1.047L20.68.419a1,1,0,0,0-1.332.532L17.663,5.039s-4.385,2.046-7.127,2.046Z" transform="translate(1 19)" fill="#e4e4e4"/>
          </g>
          <path id="Leg-2" data-name="Leg" d="M42.195,0,20.915,51.042,0,94.193H4.934L58.921,0Z" transform="translate(11.266)" fill="#997659"/>
          <g id="Left_Shot" data-name="Left Shot" transform="translate(9.87 81.764)">
            <path id="shoe-2" data-name="shoe" d="M1.84,2.263a.823.823,0,0,0-1.055.554L0,5.58A26.373,26.373,0,0,0,.371,8.824H23.565s.9-2.986-1.044-3.224-3.236-.43-3.236-.43L8.5.368a.411.411,0,0,0-.548.219L7.264,2.266a9.327,9.327,0,0,1-2.931.841Z" transform="translate(0.411 7.611)" fill="#e4e4e4"/>
          </g>
          <path id="Pant-2" data-name="Pant" d="M0,85.229l10.964,2.054C19.442,74.831,54.922,23.77,58.812,0H34.4C21.412,17.183,8.081,72.57,0,85.229Z" transform="translate(13.155 0)" fill="#5c63ab"/>
        </g>
        <g id="Body_Long_Sleeve_1" data-name="Body/Long Sleeve 1" transform="translate(9.047 33.692)">
          <path id="Skin" d="M13.073,47.772a2.429,2.429,0,0,0-3.134-1.4c-3.455.858-6.386,3.058-9.608.09-.4-.365-.686-1.505.665-2.09,3.365-1.457,8.336-4.186,9.143-5.245q1.649-2.167,10.222-24.742l8.427,1.67q-12.712,23.67-13.635,25.09c-1.384,2.13-.093,6.035.384,8.091a2.6,2.6,0,0,1-.587.073C13.935,49.305,13.529,48.538,13.073,47.772ZM80.6,12.58,95.5,6.042A35.308,35.308,0,0,1,103.066.116c.727-.231,1.969-.3.644,1.633s-2.632,4.027-2.1,4.7,2.063-.07,2.669,1.032q.606,1.1-7.755,2.637L85.36,18.67Z" transform="translate(0.822 19.311)" fill="#b28b67"/>
          <path id="Coat_Back" data-name="Coat Back" d="M0,.917,3.489,0C11.86,6.8,16.58,24.494,21.93,26.422c5.058,1.823,11.76-.956,19.695-4.61l3,5.381c-6.739,8.7-22,16.881-28.768,13.563C5.036,35.451.726,13.5,0,.917Z" transform="matrix(0.996, 0.087, -0.087, 0.996, 52.593, 1.277)" fill="#1f28cf"/>
          <path id="Shirt" d="M0,46.84H31.464c1.438,0,1.167-2.074.959-3.121-2.4-12.08-11.762-25.1-11.762-42.3L11.585,0C4.078,12.063,1.482,26.914,0,46.84Z" transform="translate(37.011)" fill="#dde3e9"/>
          <path id="Coat_Front" data-name="Coat Front" d="M0,58.286Q6.372,18.8,36.908,0H40.5S52.723,41.624,47.24,55.468H18.917A103.223,103.223,0,0,1,22.77,34.609Q13.148,51.949,6.6,59.577Z" transform="translate(11.103)" fill="#2b44ff"/>
        </g>
      </g>
    </g>
  </g>
</svg>
