<svg xmlns="http://www.w3.org/2000/svg" width="146.908" height="127.233" viewBox="0 0 146.908 127.233">
  <g id="Top_Leaves" data-name="Top Leaves" transform="translate(151.084 109.344) rotate(169)">
    <path id="Leaf" d="M42.693,69.8C42.82,64.22,40.534,59.077,38,54.224c-4.926-9.449-7.39-15.1-6.594-26.325.469-6.6,1.028-13.573-2.34-19.567C26.617,3.968,21.471-.7,16.038.088,7.438,2.047,2.637,10.242.8,18.378c-2.281,10.085.331,17.609,7.946,24.071a21.6,21.6,0,0,1,7.882,12.933c.936,4.433.671,9.517,2.272,13.78,2.395,6.373,6.718,10.265,13.221,11.449-2.347-12.633-5.644-25.685-10.93-37.4-.474-1.159-3.885-6.113-2.466-7.364,1.563-1.378,4.142,6.543,4.122,6.494,1.5,3.52,2.763,7.153,3.978,10.8l-.02,0q1.882,5.62,3.644,11.342c.453,1.6.878,3.206,1.255,4.835.553,2.39.619,8.686,2.188,10.555a3.384,3.384,0,0,0,1.022.852c.629,2.636,1.215,5.278,1.73,7.925,1.343,6.914,2.119,14.005,1.249,21.036-.254,2.052-2.865,9.188-2,11.01,1.581,3.332,2.47-1.806,2.808-3.335,2.79-12.659,1.782-24.545-1.263-36.939,2.8-1.928,5.2-8.367,5.257-10.628" transform="matrix(0.951, -0.309, 0.309, 0.951, 53.146, 13.194)" fill="#f2f2f2"/>
    <path id="Leaf-2" data-name="Leaf" d="M6.332.059c4.084.6,7.939,5.759,9.842,9.2a61.043,61.043,0,0,1,5.232,13.8c2.038,7.707,2.313,16.26,2.338,24.153,0,.951.2,12.569-1.157,12.378s-.493-12.248-.608-14.745C21.735,39.514,22.1,34.258,20.85,29a50.229,50.229,0,0,0-6.665-15.288c-.385-.6-1.2-2.849-2.124-2.331-.9.507,1.6,3.5,1.958,4.08a51.516,51.516,0,0,1,3.8,7.555A39.81,39.81,0,0,1,20.795,38.3a6.183,6.183,0,0,1-6.859-4.376c-.9-2.621-.989-5.671-2.012-8.149a12.09,12.09,0,0,0-3.2-4.382C5.11,18.159,1.335,17.35.257,11.985-.589,7.778.461-.8,6.332.059" transform="matrix(0.53, -0.848, 0.848, 0.53, 25.141, 77.958)" fill="#f2f2f2"/>
    <path id="Leaf_Me_Alone_" data-name="Leaf Me Alone!" d="M7.72,29.55a3.7,3.7,0,0,0,2.511-.873,4.978,4.978,0,0,0,1.353-2.152,18.353,18.353,0,0,0,.713-5.342,21.4,21.4,0,0,1,.772-5.761,10.11,10.11,0,0,1,3.154-4.775c.406-.347.839-.678,1.258-1,.372-.284.756-.577,1.12-.881l.165-.137.011-.009c1.172-.974,2.383-1.982,2.531-3.575a2.47,2.47,0,0,0-.423-1.929A1.861,1.861,0,0,0,19.428,2.6a6.034,6.034,0,0,0-1.233.149c-.065.014-.24.079-.482.17a9.5,9.5,0,0,1-2.452.689c-.189,0-.314-.042-.369-.126a.361.361,0,0,1,.017-.338c.142-.337.629-.634,1.446-.883,1.645-.177,3.2-.336,4.123-.336a3.092,3.092,0,0,1,.6.042A9.1,9.1,0,0,1,25.493,4.4a15.509,15.509,0,0,1,3.046,4.347A32.926,32.926,0,0,1,31.366,18.91c.073.613.139,1.281.2,2.044h1.263a41.524,41.524,0,0,0-.475-4.79,29.908,29.908,0,0,0-3.347-9.686,14.41,14.41,0,0,0-3.271-3.937A9.141,9.141,0,0,0,21.2.526,6.811,6.811,0,0,0,20.468.5c-.477,0-1.052.018-1.617.051A4.237,4.237,0,0,0,17.06.028C16.809.009,16.552,0,16.3,0a13.126,13.126,0,0,0-4.32.783A18.682,18.682,0,0,0,7.85,2.859a21.478,21.478,0,0,0-3.566,2.96A17.913,17.913,0,0,0,1.646,9.254,13.144,13.144,0,0,0,0,15.864a21.2,21.2,0,0,0,1.152,6.8,15.5,15.5,0,0,0,2.31,4.49,5.434,5.434,0,0,0,4.2,2.4Z" transform="translate(0 21.884)" fill="#f2f2f2"/>
  </g>
</svg>
