<svg xmlns="http://www.w3.org/2000/svg" width="102" height="70.967" viewBox="0 0 102 70.967">
  <g id="undraw_secure_login_pdn4" transform="translate(0 0)">
    <ellipse id="Ellipse_16" data-name="Ellipse 16" cx="20.323" cy="1.544" rx="20.323" ry="1.544" transform="translate(0 67.88)" fill="#e6e6e6"/>
    <path id="Path_73" data-name="Path 73" d="M324.272,223.256c3.537-1.5,7.942-.551,12.244.11.04-.8.525-1.776.017-2.335a1.7,1.7,0,0,1-.189-2.11c.95-1.835-.411-3.787-1.786-5.411a3.044,3.044,0,0,0-2.541-1.067l-2.546.182a3.05,3.05,0,0,0-2.708,2.18h0a2.98,2.98,0,0,0-.729,2.472,1.591,1.591,0,0,0-.654,2.221,1.276,1.276,0,0,1-.016,1.557,7.19,7.19,0,0,0-1.069,2.123Z" transform="translate(-308.738 -207.51)" fill="#2f2e41"/>
    <path id="Path_74" data-name="Path 74" d="M473,619.293H400.917a2.417,2.417,0,0,1-2.417-2.417h0a325.8,325.8,0,0,1,76.918,0h0A2.417,2.417,0,0,1,473,619.293Z" transform="translate(-373.418 -557.944)" fill="#2f2e41"/>
    <path id="Path_75" data-name="Path 75" d="M475.418,285.7l-76.918-.142,8.915-15,.043-.071V237.432a3.055,3.055,0,0,1,3.056-3.055h52.466a3.055,3.055,0,0,1,3.055,3.056v33.285Z" transform="translate(-373.418 -226.628)" fill="#3f3d56"/>
    <path id="Path_76" data-name="Path 76" d="M484.608,250.957a1,1,0,0,0-1,1v30.142a1,1,0,0,0,1,1H537.64a1,1,0,0,0,1-1V251.952a1,1,0,0,0-1-1Z" transform="translate(-447.583 -241.075)" fill="#fff"/>
    <path id="Path_77" data-name="Path 77" d="M471.58,531.718a.428.428,0,0,0-.388.248l-2.747,5.971a.426.426,0,0,0,.387.6H526.6a.426.426,0,0,0,.381-.617l-2.986-5.971a.425.425,0,0,0-.381-.236Z" transform="translate(-434.333 -485.724)" fill="#2f2e41"/>
    <circle id="Ellipse_17" data-name="Ellipse 17" cx="0.64" cy="0.64" r="0.64" transform="translate(62.688 8.104)" fill="#fff"/>
    <path id="Path_78" data-name="Path 78" d="M644.143,593.619a.427.427,0,0,0-.412.316l-.689,2.559a.426.426,0,0,0,.412.537h13.1a.426.426,0,0,0,.4-.566l-.886-2.559a.427.427,0,0,0-.4-.287Z" transform="translate(-586.493 -539.663)" fill="#2f2e41"/>
    <path id="Path_79" data-name="Path 79" d="M322.926,337.135v.569h-58.62l.044-.071v-.5Z" transform="translate(-230.31 -293.771)" fill="#2f2e41"/>
    <circle id="Ellipse_18" data-name="Ellipse 18" cx="9.952" cy="9.952" r="9.952" transform="translate(81.029 0)" fill="#6c63ff"/>
    <path id="Path_80" data-name="Path 80" d="M883.172,243.806h-8.246a.569.569,0,0,1-.569-.569v-4.976a.569.569,0,0,1,.569-.569h8.246a.569.569,0,0,1,.569.569v4.976A.569.569,0,0,1,883.172,243.806Zm-8.246-5.545v4.976h8.247v-4.976Z" transform="translate(-788.068 -229.517)" fill="#fff"/>
    <path id="Path_81" data-name="Path 81" d="M896.056,207.439h-5.118v-2.275a2.573,2.573,0,1,1,5.118,0Zm-4.55-.569h3.981v-1.706a2.008,2.008,0,1,0-3.981,0Z" transform="translate(-802.516 -198.695)" fill="#fff"/>
    <circle id="Ellipse_19" data-name="Ellipse 19" cx="0.569" cy="0.569" r="0.569" transform="translate(90.413 10.521)" fill="#fff"/>
    <path id="Path_82" data-name="Path 82" d="M574.023,342.126H533.038a.76.76,0,0,1-.759-.759V331.2a.76.76,0,0,1,.759-.759h40.985a.76.76,0,0,1,.759.759v10.167A.76.76,0,0,1,574.023,342.126Zm-40.985-11.381a.456.456,0,0,0-.455.455v10.167a.456.456,0,0,0,.455.455h40.985a.456.456,0,0,0,.455-.455V331.2a.456.456,0,0,0-.455-.455Z" transform="translate(-489.99 -310.336)" fill="#e6e6e6"/>
    <circle id="Ellipse_20" data-name="Ellipse 20" cx="3.092" cy="3.092" r="3.092" transform="translate(46.325 22.466)" fill="#e6e6e6"/>
    <path id="Path_83" data-name="Path 83" d="M639.712,356.8a.515.515,0,1,0,0,1.031H664a.515.515,0,0,0,0-1.031Z" transform="translate(-583.155 -333.309)" fill="#e6e6e6"/>
    <path id="Path_84" data-name="Path 84" d="M639.712,380.842a.515.515,0,1,0,0,1.031h10.453a.515.515,0,0,0,0-1.031Z" transform="translate(-583.155 -354.254)" fill="#e6e6e6"/>
    <path id="Path_85" data-name="Path 85" d="M415.046,352.538l-7.576,4.028-.1-3.357a22.438,22.438,0,0,0,7-2.3l.792-1.958a1.327,1.327,0,0,1,2.256-.344h0a1.327,1.327,0,0,1-.117,1.81Z" transform="translate(-381.15 -325.741)" fill="#ffb8b8"/>
    <path id="Path_86" data-name="Path 86" d="M322.743,528.855h0a1.489,1.489,0,0,1,.189-1.2L324.6,525.1a2.909,2.909,0,0,1,3.773-1h0a2.413,2.413,0,0,0,.242,3.143,15.134,15.134,0,0,0-3.593,2.45,1.489,1.489,0,0,1-2.275-.838Z" transform="translate(-307.359 -478.803)" fill="#2f2e41"/>
    <path id="Path_87" data-name="Path 87" d="M375.109,461.5h0a2.856,2.856,0,0,1-2.427,1.386l-11.057.084-.48-2.781,4.891-1.439-4.124-3.165,4.507-5.275,8.187,7.631A2.856,2.856,0,0,1,375.109,461.5Z" transform="translate(-340.869 -414.789)" fill="#2f2e41"/>
    <path id="Path_88" data-name="Path 88" d="M318.035,428.546h-2.59c-2.325-15.936-4.691-31.917,2.3-37.882l8.248,1.343-1.055,7-4.6,5.275Z" transform="translate(-299.004 -362.813)" fill="#2f2e41"/>
    <path id="Path_89" data-name="Path 89" d="M332.993,682.207h0a1.489,1.489,0,0,1-1.2-.189l-2.812-.378a2.909,2.909,0,0,1-1-3.773h0a2.413,2.413,0,0,0,3.143-.242c.641,1.295,1.7,1.216,2.707,2.307a1.489,1.489,0,0,1-.838,2.275Z" transform="translate(-311.686 -612.863)" fill="#2f2e41"/>
    <path id="Path_90" data-name="Path 90" d="M366.687,263.072l-4.8-1.151a8.292,8.292,0,0,0,.48-5.371l3.261-.1A25.034,25.034,0,0,0,366.687,263.072Z" transform="translate(-341.518 -245.866)" fill="#ffb8b8"/>
    <path id="Path_91" data-name="Path 91" d="M348.594,306.534c-3.491,2.379-5.957.081-7.839-3.463a20.409,20.409,0,0,0-.946-7.585,5.163,5.163,0,0,1,3.152-6.226h0l4.124,1.726c3.5,2.854,4.191,5.946,2.877,9.207Z" transform="translate(-322.108 -274.453)" fill="#6c63ff"/>
    <path id="Path_92" data-name="Path 92" d="M273.023,299.9l-3.836,2.014L276,305.946l.948,2.337a1.24,1.24,0,0,1-.745,1.638h0a1.24,1.24,0,0,1-1.641-1.1l-.1-1.629-8.654-2.856a2.024,2.024,0,0,1-1.27-1.236h0a2.024,2.024,0,0,1,.759-2.354l6.959-4.774Z" transform="translate(-256.582 -280.301)" fill="#ffb8b8"/>
    <path id="Path_93" data-name="Path 93" d="M326.062,293.428c-1.6-.7-3.055.061-4.891.671l-.288-5.083a5.61,5.61,0,0,1,5.179-.479Z" transform="translate(-305.785 -273.441)" fill="#6c63ff"/>
    <circle id="Ellipse_21" data-name="Ellipse 21" cx="3.062" cy="3.062" r="3.062" transform="translate(19.13 6.983)" fill="#ffb8b8"/>
    <path id="Path_94" data-name="Path 94" d="M358.317,230.613c-3.031.3-5.341-.2-6.817-1.61v-1.137h6.56Z" transform="translate(-332.463 -220.955)" fill="#2f2e41"/>
  </g>
</svg>
